<?xml version="1.0" encoding="UTF-8"?>
<svg xmlns="http://www.w3.org/2000/svg" xmlns:xlink="http://www.w3.org/1999/xlink" width="854pt" height="480pt" viewBox="0 0 854 480" version="1.1">
<defs>
<g>
<symbol overflow="visible" id="glyph0-0">
<path style="stroke:none;" d="M 0.171875 0.59375 L 0.171875 -2.34375 L 1.828125 -2.34375 L 1.828125 0.59375 Z M 0.359375 0.40625 L 1.640625 0.40625 L 1.640625 -2.15625 L 0.359375 -2.15625 Z "/>
</symbol>
<symbol overflow="visible" id="glyph0-1">
<path style="stroke:none;" d="M 1.15625 -0.828125 L 1.15625 -2.109375 L 0.328125 -0.828125 Z M 1.875 0 L 0.765625 0 L 0.765625 -0.171875 L 1.15625 -0.171875 L 1.15625 -0.640625 L 0.109375 -0.640625 L 0.109375 -0.828125 L 1.171875 -2.46875 L 1.484375 -2.46875 L 1.484375 -0.828125 L 1.953125 -0.828125 L 1.953125 -0.640625 L 1.484375 -0.640625 L 1.484375 -0.171875 L 1.875 -0.171875 Z "/>
</symbol>
<symbol overflow="visible" id="glyph0-2">
<path style="stroke:none;" d="M 0.3125 -0.171875 C 0.3125 -0.234375 0.332031 -0.285156 0.375 -0.328125 C 0.414062 -0.367188 0.46875 -0.390625 0.53125 -0.390625 C 0.59375 -0.390625 0.644531 -0.367188 0.6875 -0.328125 C 0.726562 -0.285156 0.75 -0.234375 0.75 -0.171875 C 0.75 -0.109375 0.726562 -0.0546875 0.6875 -0.015625 C 0.644531 0.0234375 0.59375 0.046875 0.53125 0.046875 C 0.46875 0.046875 0.414062 0.0234375 0.375 -0.015625 C 0.332031 -0.0546875 0.3125 -0.109375 0.3125 -0.171875 Z "/>
</symbol>
<symbol overflow="visible" id="glyph0-3">
<path style="stroke:none;" d="M 1.0625 -0.109375 C 1.226562 -0.109375 1.347656 -0.195312 1.421875 -0.375 C 1.503906 -0.5625 1.546875 -0.835938 1.546875 -1.203125 C 1.546875 -1.578125 1.503906 -1.851562 1.421875 -2.03125 C 1.347656 -2.21875 1.226562 -2.3125 1.0625 -2.3125 C 0.894531 -2.3125 0.769531 -2.21875 0.6875 -2.03125 C 0.601562 -1.851562 0.5625 -1.578125 0.5625 -1.203125 C 0.5625 -0.835938 0.601562 -0.5625 0.6875 -0.375 C 0.769531 -0.195312 0.894531 -0.109375 1.0625 -0.109375 Z M 1.0625 0.046875 C 0.789062 0.046875 0.582031 -0.0625 0.4375 -0.28125 C 0.289062 -0.5 0.21875 -0.804688 0.21875 -1.203125 C 0.21875 -1.609375 0.289062 -1.921875 0.4375 -2.140625 C 0.582031 -2.359375 0.789062 -2.46875 1.0625 -2.46875 C 1.320312 -2.46875 1.523438 -2.359375 1.671875 -2.140625 C 1.816406 -1.921875 1.890625 -1.609375 1.890625 -1.203125 C 1.890625 -0.804688 1.816406 -0.5 1.671875 -0.28125 C 1.523438 -0.0625 1.320312 0.046875 1.0625 0.046875 Z "/>
</symbol>
</g>
</defs>
<g id="surface62">
<g style="fill:rgb(100%,100%,100%);fill-opacity:1;">
  <use xlink:href="#glyph0-1" x="30" y="23.09375"/>
  <use xlink:href="#glyph0-2" x="32" y="23.09375"/>
  <use xlink:href="#glyph0-3" x="33" y="23.09375"/>
</g>
</g>
</svg>
