<?xml version="1.0" encoding="UTF-8"?>
<svg xmlns="http://www.w3.org/2000/svg" xmlns:xlink="http://www.w3.org/1999/xlink" width="854pt" height="480pt" viewBox="0 0 854 480" version="1.1">
<defs>
<g>
<symbol overflow="visible" id="glyph0-0">
<path style="stroke:none;" d="M 0.234375 0.828125 L 0.234375 -3.328125 L 2.59375 -3.328125 L 2.59375 0.828125 Z M 0.5 0.578125 L 2.328125 0.578125 L 2.328125 -3.0625 L 0.5 -3.0625 Z "/>
</symbol>
<symbol overflow="visible" id="glyph0-1">
<path style="stroke:none;" d="M 2.03125 -3 L 1.8125 -3 C 1.800781 -3.113281 1.765625 -3.203125 1.703125 -3.265625 C 1.640625 -3.328125 1.550781 -3.359375 1.4375 -3.359375 C 1.269531 -3.359375 1.15625 -3.3125 1.09375 -3.21875 C 1.03125 -3.132812 1 -2.984375 1 -2.765625 L 1 -2.453125 L 1.6875 -2.453125 L 1.6875 -2.203125 L 1 -2.203125 L 1 -0.25 L 1.546875 -0.25 L 1.546875 0 L 0.171875 0 L 0.171875 -0.25 L 0.578125 -0.25 L 0.578125 -2.203125 L 0.171875 -2.203125 L 0.171875 -2.453125 L 0.578125 -2.453125 L 0.578125 -2.75 C 0.578125 -3.03125 0.644531 -3.238281 0.78125 -3.375 C 0.925781 -3.507812 1.140625 -3.578125 1.421875 -3.578125 C 1.515625 -3.578125 1.613281 -3.566406 1.71875 -3.546875 C 1.820312 -3.535156 1.925781 -3.507812 2.03125 -3.46875 Z "/>
</symbol>
</g>
</defs>
<g id="surface52">
<g style="fill:rgb(34.509804%,76.862745%,86.666667%);fill-opacity:1;">
  <use xlink:href="#glyph0-1" x="30" y="24.383789"/>
</g>
</g>
</svg>
