<?xml version="1.0" encoding="UTF-8"?>
<svg xmlns="http://www.w3.org/2000/svg" xmlns:xlink="http://www.w3.org/1999/xlink" width="854pt" height="480pt" viewBox="0 0 854 480" version="1.1">
<defs>
<g>
<symbol overflow="visible" id="glyph0-0">
<path style="stroke:none;" d="M 0.234375 0.828125 L 0.234375 -3.328125 L 2.59375 -3.328125 L 2.59375 0.828125 Z M 0.5 0.578125 L 2.328125 0.578125 L 2.328125 -3.0625 L 0.5 -3.0625 Z "/>
</symbol>
<symbol overflow="visible" id="glyph0-1">
<path style="stroke:none;" d="M 1.546875 -0.15625 C 1.765625 -0.15625 1.929688 -0.234375 2.046875 -0.390625 C 2.160156 -0.554688 2.21875 -0.785156 2.21875 -1.078125 C 2.21875 -1.378906 2.160156 -1.609375 2.046875 -1.765625 C 1.929688 -1.929688 1.765625 -2.015625 1.546875 -2.015625 C 1.328125 -2.015625 1.160156 -1.9375 1.046875 -1.78125 C 0.929688 -1.625 0.875 -1.398438 0.875 -1.109375 C 0.875 -0.804688 0.929688 -0.570312 1.046875 -0.40625 C 1.160156 -0.238281 1.328125 -0.15625 1.546875 -0.15625 Z M 0.796875 -1.890625 C 0.898438 -2.003906 1.015625 -2.085938 1.140625 -2.140625 C 1.273438 -2.203125 1.425781 -2.234375 1.59375 -2.234375 C 1.9375 -2.234375 2.207031 -2.128906 2.40625 -1.921875 C 2.601562 -1.722656 2.703125 -1.441406 2.703125 -1.078125 C 2.703125 -0.734375 2.59375 -0.457031 2.375 -0.25 C 2.164062 -0.0390625 1.882812 0.0625 1.53125 0.0625 C 1.132812 0.0625 0.832031 -0.078125 0.625 -0.359375 C 0.414062 -0.648438 0.3125 -1.066406 0.3125 -1.609375 C 0.3125 -2.210938 0.4375 -2.675781 0.6875 -3 C 0.9375 -3.332031 1.285156 -3.5 1.734375 -3.5 C 1.859375 -3.5 1.984375 -3.488281 2.109375 -3.46875 C 2.242188 -3.445312 2.382812 -3.410156 2.53125 -3.359375 L 2.53125 -2.796875 L 2.265625 -2.796875 C 2.242188 -2.953125 2.179688 -3.070312 2.078125 -3.15625 C 1.984375 -3.238281 1.851562 -3.28125 1.6875 -3.28125 C 1.382812 -3.28125 1.160156 -3.164062 1.015625 -2.9375 C 0.867188 -2.707031 0.796875 -2.359375 0.796875 -1.890625 Z "/>
</symbol>
</g>
</defs>
<g id="surface87">
<g style="fill:rgb(100%,100%,100%);fill-opacity:1;">
  <use xlink:href="#glyph0-1" x="30" y="24.383789"/>
</g>
</g>
</svg>
