<?xml version="1.0" encoding="UTF-8"?>
<svg xmlns="http://www.w3.org/2000/svg" xmlns:xlink="http://www.w3.org/1999/xlink" width="854pt" height="480pt" viewBox="0 0 854 480" version="1.1">
<defs>
<g>
<symbol overflow="visible" id="glyph0-0">
<path style="stroke:none;" d="M 0.296875 1.03125 L 0.296875 -4.109375 L 3.203125 -4.109375 L 3.203125 1.03125 Z M 0.625 0.703125 L 2.875 0.703125 L 2.875 -3.78125 L 0.625 -3.78125 Z "/>
</symbol>
<symbol overflow="visible" id="glyph0-1">
<path style="stroke:none;" d="M 0.828125 0 L 0.828125 -0.296875 L 1.5625 -0.296875 L 1.5625 -3.84375 L 0.71875 -3.28125 L 0.71875 -3.65625 L 1.75 -4.328125 L 2.140625 -4.328125 L 2.140625 -0.296875 L 2.875 -0.296875 L 2.875 0 Z "/>
</symbol>
<symbol overflow="visible" id="glyph0-2">
<path style="stroke:none;" d="M 0.546875 -0.296875 C 0.546875 -0.398438 0.582031 -0.488281 0.65625 -0.5625 C 0.726562 -0.632812 0.816406 -0.671875 0.921875 -0.671875 C 1.023438 -0.671875 1.113281 -0.632812 1.1875 -0.5625 C 1.269531 -0.488281 1.3125 -0.398438 1.3125 -0.296875 C 1.3125 -0.191406 1.269531 -0.101562 1.1875 -0.03125 C 1.113281 0.0390625 1.023438 0.078125 0.921875 0.078125 C 0.816406 0.078125 0.726562 0.0390625 0.65625 -0.03125 C 0.582031 -0.101562 0.546875 -0.191406 0.546875 -0.296875 Z "/>
</symbol>
<symbol overflow="visible" id="glyph0-3">
<path style="stroke:none;" d=""/>
</symbol>
<symbol overflow="visible" id="glyph0-4">
<path style="stroke:none;" d="M 0.328125 0 L 0.328125 -0.296875 L 0.859375 -0.296875 L 0.859375 -3.9375 L 0.296875 -3.9375 L 0.296875 -4.25 L 1.53125 -4.25 L 3.015625 -1.21875 L 4.515625 -4.25 L 5.671875 -4.25 L 5.671875 -3.9375 L 5.109375 -3.9375 L 5.109375 -0.296875 L 5.65625 -0.296875 L 5.65625 0 L 3.984375 0 L 3.984375 -0.296875 L 4.53125 -0.296875 L 4.53125 -3.578125 L 3.078125 -0.625 L 2.671875 -0.625 L 1.21875 -3.578125 L 1.21875 -0.296875 L 1.75 -0.296875 L 1.75 0 Z "/>
</symbol>
<symbol overflow="visible" id="glyph0-5">
<path style="stroke:none;" d="M 3.15625 -1.453125 L 0.90625 -1.453125 L 0.90625 -1.4375 C 0.90625 -1.03125 0.976562 -0.722656 1.125 -0.515625 C 1.28125 -0.304688 1.507812 -0.203125 1.8125 -0.203125 C 2.039062 -0.203125 2.226562 -0.257812 2.375 -0.375 C 2.519531 -0.5 2.625 -0.679688 2.6875 -0.921875 L 3.109375 -0.921875 C 3.023438 -0.585938 2.867188 -0.335938 2.640625 -0.171875 C 2.421875 -0.00390625 2.128906 0.078125 1.765625 0.078125 C 1.316406 0.078125 0.957031 -0.0664062 0.6875 -0.359375 C 0.425781 -0.648438 0.296875 -1.035156 0.296875 -1.515625 C 0.296875 -1.992188 0.425781 -2.378906 0.6875 -2.671875 C 0.945312 -2.960938 1.289062 -3.109375 1.71875 -3.109375 C 2.175781 -3.109375 2.523438 -2.96875 2.765625 -2.6875 C 3.015625 -2.40625 3.144531 -1.992188 3.15625 -1.453125 Z M 2.546875 -1.765625 C 2.535156 -2.109375 2.457031 -2.367188 2.3125 -2.546875 C 2.175781 -2.734375 1.976562 -2.828125 1.71875 -2.828125 C 1.476562 -2.828125 1.289062 -2.734375 1.15625 -2.546875 C 1.019531 -2.367188 0.9375 -2.109375 0.90625 -1.765625 Z "/>
</symbol>
<symbol overflow="visible" id="glyph0-6">
<path style="stroke:none;" d="M 2.3125 -0.953125 L 2.3125 -1.59375 L 1.640625 -1.59375 C 1.378906 -1.59375 1.1875 -1.535156 1.0625 -1.421875 C 0.9375 -1.304688 0.875 -1.132812 0.875 -0.90625 C 0.875 -0.695312 0.9375 -0.53125 1.0625 -0.40625 C 1.195312 -0.28125 1.375 -0.21875 1.59375 -0.21875 C 1.8125 -0.21875 1.984375 -0.285156 2.109375 -0.421875 C 2.242188 -0.554688 2.3125 -0.734375 2.3125 -0.953125 Z M 2.84375 -1.890625 L 2.84375 -0.296875 L 3.3125 -0.296875 L 3.3125 0 L 2.3125 0 L 2.3125 -0.328125 C 2.195312 -0.179688 2.0625 -0.078125 1.90625 -0.015625 C 1.757812 0.046875 1.585938 0.078125 1.390625 0.078125 C 1.046875 0.078125 0.773438 -0.0078125 0.578125 -0.1875 C 0.390625 -0.363281 0.296875 -0.601562 0.296875 -0.90625 C 0.296875 -1.21875 0.40625 -1.457031 0.625 -1.625 C 0.851562 -1.800781 1.171875 -1.890625 1.578125 -1.890625 L 2.3125 -1.890625 L 2.3125 -2.109375 C 2.3125 -2.335938 2.242188 -2.515625 2.109375 -2.640625 C 1.972656 -2.765625 1.773438 -2.828125 1.515625 -2.828125 C 1.304688 -2.828125 1.140625 -2.78125 1.015625 -2.6875 C 0.898438 -2.59375 0.828125 -2.453125 0.796875 -2.265625 L 0.53125 -2.265625 L 0.53125 -2.875 C 0.707031 -2.945312 0.878906 -3.003906 1.046875 -3.046875 C 1.222656 -3.085938 1.394531 -3.109375 1.5625 -3.109375 C 1.976562 -3.109375 2.296875 -3.003906 2.515625 -2.796875 C 2.734375 -2.585938 2.84375 -2.285156 2.84375 -1.890625 Z "/>
</symbol>
<symbol overflow="visible" id="glyph0-7">
<path style="stroke:none;" d="M 0.234375 0 L 0.234375 -0.296875 L 0.71875 -0.296875 L 0.71875 -2.71875 L 0.203125 -2.71875 L 0.203125 -3.03125 L 1.234375 -3.03125 L 1.234375 -2.484375 C 1.328125 -2.691406 1.453125 -2.847656 1.609375 -2.953125 C 1.765625 -3.054688 1.945312 -3.109375 2.15625 -3.109375 C 2.488281 -3.109375 2.734375 -3.007812 2.890625 -2.8125 C 3.046875 -2.625 3.125 -2.328125 3.125 -1.921875 L 3.125 -0.296875 L 3.59375 -0.296875 L 3.59375 0 L 2.140625 0 L 2.140625 -0.296875 L 2.59375 -0.296875 L 2.59375 -1.765625 C 2.59375 -2.128906 2.546875 -2.378906 2.453125 -2.515625 C 2.367188 -2.648438 2.210938 -2.71875 1.984375 -2.71875 C 1.734375 -2.71875 1.546875 -2.628906 1.421875 -2.453125 C 1.296875 -2.273438 1.234375 -2.019531 1.234375 -1.6875 L 1.234375 -0.296875 L 1.6875 -0.296875 L 1.6875 0 Z "/>
</symbol>
</g>
</defs>
<g id="surface227">
<g style="fill:rgb(34.509804%,76.862745%,86.666667%);fill-opacity:1;">
  <use xlink:href="#glyph0-1" x="30" y="25.414062"/>
  <use xlink:href="#glyph0-2" x="34" y="25.414062"/>
  <use xlink:href="#glyph0-3" x="36" y="25.414062"/>
  <use xlink:href="#glyph0-4" x="38" y="25.414062"/>
  <use xlink:href="#glyph0-5" x="44" y="25.414062"/>
  <use xlink:href="#glyph0-6" x="47" y="25.414062"/>
  <use xlink:href="#glyph0-7" x="50" y="25.414062"/>
</g>
</g>
</svg>
